<svg width="237" height="44" fill="none" xmlns="http://www.w3.org/2000/svg"><path d="M14.6667 2.068L1.37867 22 14.6667 41.932 27.9547 22 14.6667 2.068zm0-2.068l14.6666 22-14.6666 22L.00000381 22 14.6667 0z" fill="#FFC22D"/><path d="M10.6773 16.852l-1.31019 1.76-.54756 5.5733v-6.1306l1.85775-1.2027zM14.1191 11.484l-1.7013 1.7893-.5769 2.7134v-2.6254l1.3102-1.1146v.0586l.968-.8213z" fill="#FFC22D"/><path d="M6.40445 24.1853h2.41511l-2.20978.4107-.93867 1.804.73334-2.2147zM12.8089 15.356v-1.6133l1.8578-1.4374v1.804l-1.8578 1.2467zM13.5618 26.2533h-.5769v-1.8186l.5769-.0587v1.8773zM13.5618 22.308l-.5769.132v-1.8187l.5769-.2053v1.892zM13.5618 18.612l-.5769.264v-1.8333l.5769-.3227v1.892zM11.88 26.2533h-.4693v-1.6426l.4693-.0587v1.7013zM11.88 22.704l-.4693.1027V21.164l.4693-.1613v1.7013zM11.88 19.3747l-.4693.2053v-1.6427l.4693-.264v1.7014zM10.4329 26.2533h-.3911v-1.496l.3911-.044v1.54zM10.4329 23.0413l-.3911.088v-1.496l.3911-.132v1.54zM10.4329 20.02l-.3911.176V18.7l.3911-.22v1.54z" fill="#FFC22D"/><path d="M14.1191 11.484l.5476-.528-1.5156 1.2907V9.97333l1.5156-2.2 1.5155 2.2v2.27337l1.3103 1.1146v2.64l3.0311 2.0387v6.1307h2.4053l.7333 2.2293h-8.9955V14.1093l1.8577 1.2467v-1.6133l-1.8577-1.4374v-1.276l-.5476.4547zm.0685-1.144l-.4596.4253v.88l.4596-.396V10.34zm2.1608 6.7027l-.5866-.3227v1.892l.5866.264v-1.8333zm0 3.5786l-.5866-.2053v1.892l.5866.132v-1.8187zm0 3.8134l-.5866-.0587v1.8773h.5866v-1.8186zm2.5521 1.8186h.3911v-1.496l-.3911-.044v1.54zm0-3.212l.3911.088v-1.496l-.3911-.132v1.54zm0-3.0213l.3911.176V18.7l-.3911-.22v1.54zm-1.4472 6.2333h.4792v-1.6426l-.4792-.0587v1.7013zm0-3.5493l.4792.1173v-1.6426l-.4792-.1614v1.6867zm0-3.3293l.4792.22V17.952l-.4792-.264v1.6867zm-2.3857-8.1107l.4595.396v-.88l-.4595-.4253v.9093z" fill="#FFC22D"/><path d="M14.1191 11.484l-.968.8213v-.0586l1.5156-1.276-.5476.5133zM25.4711 26.3267L3.91111 26.4 14.6667 42.5333l10.8044-16.2066z" fill="#FFC22D"/><path d="M52.1458 19.5c-.5937-3.2813-3.2187-5.2188-6.4375-5.2188-4.0937 0-7.0625 3.1563-7.0625 8.2188s2.9688 8.2187 7.0625 8.2187c3.2188 0 5.8438-1.9375 6.4375-5.2187h-1.9375c-.4687 2.2188-2.375 3.4062-4.5 3.4062-2.9062 0-5.1875-2.25-5.1875-6.4062s2.2813-6.4063 5.1875-6.4063c2.125 0 4.0313 1.1875 4.5 3.4063h1.9375zm2.2559-3.2813h5.0312V30.5h1.9375V16.2187h5.0313V14.5h-12v1.7187zM69.3919 30.5h1.9375v-5.8438h3.5c3.7266 0 5.4063-2.2656 5.4063-5.0937S78.556 14.5 74.7982 14.5h-5.4063v16zm1.9375-7.5625v-6.7188h3.4063c2.6015 0 3.5937 1.4219 3.5937 3.3438s-.9922 3.375-3.5625 3.375h-3.4375zM96.8568 22.5c0-5.0625-2.9688-8.2188-7.0625-8.2188-4.0938 0-7.0625 3.1563-7.0625 8.2188s2.9687 8.2187 7.0625 8.2187c4.0937 0 7.0625-3.1562 7.0625-8.2187zm-1.875 0c0 4.1562-2.2813 6.4062-5.1875 6.4062-2.9063 0-5.1875-2.25-5.1875-6.4062s2.2812-6.4063 5.1875-6.4063c2.9062 0 5.1875 2.2501 5.1875 6.4063zm5.1332-8v16h1.875l8.718-12.5625h.157V30.5h1.937v-16h-1.875l-8.75 12.5937h-.156V14.5h-1.906zm7.875-4c0 .8125-.438 1.5312-1.532 1.5312-1.093 0-1.5-.7187-1.5-1.5312h-1.718c0 1.6875 1.25 2.875 3.218 2.875 2 0 3.25-1.1875 3.25-2.875h-1.718zm18.095 20h2.313l-6.688-8.9688 6.469-7.0312h-2.312l-6.407 6.9375h-.843V14.5h-1.938v16h1.938v-7.3438h1.968l5.5 7.3438zm17.565-8c0-5.0625-2.969-8.2188-7.063-8.2188-4.094 0-7.062 3.1563-7.062 8.2188s2.968 8.2187 7.062 8.2187 7.063-3.1562 7.063-8.2187zm-1.875 0c0 4.1562-2.282 6.4062-5.188 6.4062-2.906 0-5.187-2.25-5.187-6.4062s2.281-6.4063 5.187-6.4063 5.188 2.2501 5.188 6.4063zm5.133 8h1.937v-7.1563h8.531V30.5h1.938v-16h-1.938v7.125h-8.531V14.5h-1.937v16zm15.41-14.2813h5.031V30.5h1.937V16.2187h5.032V14.5h-12v1.7187zM177.308 30.5h1.937v-5.8438h3.5c3.727 0 5.407-2.2656 5.407-5.0937s-1.68-5.0625-5.438-5.0625h-5.406v16zm1.937-7.5625v-6.7188h3.407c2.601 0 3.593 1.4219 3.593 3.3438s-.992 3.375-3.562 3.375h-3.438zm25.528-.4375c0-5.0625-2.969-8.2188-7.063-8.2188-4.093 0-7.062 3.1563-7.062 8.2188s2.969 8.2187 7.062 8.2187c4.094 0 7.063-3.1562 7.063-8.2187zm-1.875 0c0 4.1562-2.281 6.4062-5.188 6.4062-2.906 0-5.187-2.25-5.187-6.4062s2.281-6.4063 5.187-6.4063c2.907 0 5.188 2.2501 5.188 6.4063zm3.758 8h.593c3.532 0 4.243-2.875 4.438-7.9062l.25-6.3751h5.969V30.5h1.937v-16h-9.75l-.281 7.7187c-.172 4.7188-.688 6.5-2.688 6.5h-.468V30.5zm18.996-9.2812V14.5h-1.938v16h6c3.438 0 5.313-1.9375 5.313-4.7188 0-2.7812-1.875-4.5624-5.313-4.5624h-4.062zm0 1.7187h4.062c2.188 0 3.406 1.2812 3.406 2.8125 0 1.5625-1.218 3.0625-3.406 3.0625h-4.062v-5.875z" fill="#212B31"/></svg>